HIERARCHY
ROOT Hips
{
  OFFSET -35.4901 99.2528 17.4586
  CHANNELS 6 Xposition Yposition Zposition Zrotation Xrotation Yrotation
  JOINT LeftUpLeg
  {
    OFFSET 8.64259 1.95398 -2.38835
    CHANNELS 3 Zrotation Xrotation Yrotation
    JOINT LeftLeg
    {
      OFFSET 43.7702 0 0
      CHANNELS 3 Zrotation Xrotation Yrotation
      JOINT LeftFoot
      {
        OFFSET 40.6238 0 0
        CHANNELS 3 Zrotation Xrotation Yrotation
        JOINT LeftToeBase
        {
          OFFSET 12.7242 0 0
          CHANNELS 3 Zrotation Xrotation Yrotation
          End Site
          {
            OFFSET 0 0 0
          }
        }
      }
    }
  }
  JOINT RightUpLeg
  {
    OFFSET -8.2249 1.95398 -2.59336
    CHANNELS 3 Zrotation Xrotation Yrotation
    JOINT RightLeg
    {
      OFFSET 43.5653 0 0
      CHANNELS 3 Zrotation Xrotation Yrotation
      JOINT RightFoot
      {
        OFFSET 40.6238 0 0
        CHANNELS 3 Zrotation Xrotation Yrotation
        JOINT RightToeBase
        {
          OFFSET 12.7242 0 0
          CHANNELS 3 Zrotation Xrotation Yrotation
          End Site
          {
            OFFSET 0 0 0
          }
        }
      }
    }
  }
  JOINT Spine
  {
    OFFSET 0.165834 0.87714 6.61349
    CHANNELS 3 Zrotation Xrotation Yrotation
    JOINT Spine1
    {
      OFFSET 7.38963 1.71661e-005 0
      CHANNELS 3 Zrotation Xrotation Yrotation
      JOINT Spine2
      {
        OFFSET 11.9445 1.14441e-005 0
        CHANNELS 3 Zrotation Xrotation Yrotation
        JOINT Spine3
        {
          OFFSET 14.7254 4.19617e-005 0
          CHANNELS 3 Zrotation Xrotation Yrotation
          JOINT Spine4
          {
            OFFSET 10.9679 0 0
            CHANNELS 3 Zrotation Xrotation Yrotation
            JOINT RightShoulder
            {
              OFFSET 2.46616 -1.6653 3.69651
              CHANNELS 3 Zrotation Xrotation Yrotation
              JOINT RightArm
              {
                OFFSET 13.0012 0 0
                CHANNELS 3 Zrotation Xrotation Yrotation
                JOINT RightForeArm
                {
                  OFFSET 28.7848 1.52588e-005 0
                  CHANNELS 3 Zrotation Xrotation Yrotation
                  JOINT RightHand
                  {
                    OFFSET 26.5688 1.52588e-005 0
                    CHANNELS 3 Zrotation Xrotation Yrotation
                    End Site
                    {
                      OFFSET 0 0 0
                    }
                  }
                }
              }
            }
            JOINT LeftShoulder
            {
              OFFSET 2.38034 -1.29275 -3.7523
              CHANNELS 3 Zrotation Xrotation Yrotation
              JOINT LeftArm
              {
                OFFSET 16.3182 6.10351e-005 0
                CHANNELS 3 Zrotation Xrotation Yrotation
                JOINT LeftForeArm
                {
                  OFFSET 27.0901 0 0
                  CHANNELS 3 Zrotation Xrotation Yrotation
                  JOINT LeftHand
                  {
                    OFFSET 24.5451 1.52588e-005 0
                    CHANNELS 3 Zrotation Xrotation Yrotation
                    End Site
                    {
                      OFFSET 0 0 0
                    }
                  }
                }
              }
            }
            JOINT Neck
            {
              OFFSET 5.0226 -0.0266342 0
              CHANNELS 3 Zrotation Xrotation Yrotation
              JOINT Head
              {
                OFFSET 6.69364 2.86102e-005 0
                CHANNELS 3 Zrotation Xrotation Yrotation
                End Site
                {
                  OFFSET 0 0 0
                }
              }
            }
          }
        }
      }
    }
  }
}
MOTION
Frames:	15
Frame Time:	0.0416667
31.0828 99.4595 14.7234 6.09477 -86.5648 6.9283 -177.317 5.07027 95.1463 -3.78848 -2.32197 0.60341 66.5108 2.452 -6.79773 17.7183 -3.9353 6.29572 171.403 3.54584 90.4081 -2.10885 -2.83244 1.36345 63.6263 -1.42024 2.26931 25.3191 -1.22063 3.48353 0.53607 5.97592 -89.7405 14.9209 1.18951 0.346122 3.25044 1.20359 0.293414 -19.2878 1.03049 0.68764 0.724829 1.03049 0.687641 102.337 26.7306 -80.227 12.0397 41.4715 -64.1931 -6.79373 43.338 -0.00504886 16.5262 -0.568608 -19.0709 -77.9566 18.0915 94.4185 8.87417 -39.6201 -76.1618 -176.378 -84.9917 179.937 -20.5317 -0.14314 -4.04067 42.2382 -4.70744 -7.20492 -21.2227 -0.681635 0.0500885 
30.865 99.3591 13.4748 5.18204 -85.7375 5.76011 -177.625 6.92975 94.96 -4.32781 -2.45184 0.533513 66.4115 2.43364 -6.76801 17.4627 -5.0099 7.7622 171.068 5.41442 90.3444 -2.58377 -2.89268 1.79376 63.7832 -1.54449 1.71243 24.9594 -1.33414 3.77844 0.535533 6.08149 -89.8406 14.7109 1.1389 0.155383 3.04041 1.14464 0.105102 -19.4981 1.03955 0.490521 0.514521 1.03954 0.490517 102.298 26.1921 -82.7342 12.9353 44.2068 -60.8902 -1.63574 41.7642 -7.49115 15.2084 -0.556121 -19.9465 -78.5924 15.6551 91.1053 4.36131 -40.9681 -73.8952 -51.1238 -87.7705 -57.0032 -20.5075 -0.00431287 -4.91136 35.8832 -4.18298 -7.17045 -16.5423 -0.756519 0.560487 
30.628 99.2983 12.3665 8.60989 -85.1843 8.83256 -177.666 9.03833 94.8318 -5.92376 -2.14401 0.152601 66.2617 2.48082 -6.60888 17.4565 -4.846 7.53544 170.683 7.04041 90.0756 -3.30642 -2.47399 2.13478 63.5143 -1.39198 1.80579 26.3867 -1.39229 3.86281 0.421829 6.22196 -89.9444 14.4304 0.862808 -0.0100252 2.75972 0.861535 -0.0479972 -19.7776 0.825925 0.249765 0.23506 0.825933 0.24977 102.167 22.5199 -83.9924 23.7267 47.5424 -67.1006 3.77484 32.5138 -17.1614 13.5324 -0.943754 -23.2835 -78.1529 7.48593 94.2113 -8.86651 -39.3837 -87.4021 -28.5005 -74.404 -38.1728 -19.2801 0.0612307 -5.37557 26.4474 -3.67671 -7.04552 -10.3062 -0.942196 0.208257 
30.354 99.2415 11.2204 10.4973 -85.0308 10.5888 -177.226 10.795 95.0783 -7.48758 -1.23823 -0.588698 66.2971 2.82651 -6.19977 16.6991 -4.57127 7.12628 170.837 8.68306 90.2538 -4.97716 -1.88806 2.09415 63.899 -1.52508 2.07847 25.0951 -1.19216 3.43263 0.398132 6.49224 -90.1122 13.8911 0.734441 -0.32445 2.22028 0.719452 -0.356466 -20.3165 0.797996 -0.088704 -0.30388 0.797995 -0.0887091 101.734 17.3041 -87.7997 33.405 51.2299 -70.3816 8.47691 19.9733 -28.4171 9.6003 -0.877433 -26.0662 -78.6807 -1.154 93.7216 -21.3392 -35.0038 -92.024 -32.284 -54.8734 -47.3846 -17.1405 0.225041 -6.83757 19.747 -3.2351 -4.69073 -8.2973 -1.59449 -1.11163 
30.2009 99.0995 9.94992 15.4466 -84.8489 14.9232 -176.798 12.7401 94.8798 -9.40897 -0.234359 -1.53715 66.3976 3.24899 -5.93337 16.8805 -4.53058 7.07819 170.591 11.505 89.8664 -8.73658 -1.2237 2.15963 65.3444 -1.71637 2.82804 22.5386 -1.28587 3.76853 0.368693 6.80476 -90.1259 13.2655 0.670889 -0.336287 1.59471 0.65544 -0.365489 -20.9418 0.740946 -0.11909 -0.929124 0.740941 -0.119098 101.614 11.2358 -86.2173 50.2669 47.5821 -77.6287 8.71281 1.57438 -41.4711 3.2789 -0.357628 -28.6962 -80.2069 -8.68665 89.9077 -28.4282 -27.9887 -88.1377 -32.141 -34.351 -55.7237 -17.6512 0.646429 -9.86024 13.045 -3.18361 -5.14003 -5.99591 -1.80708 0.0242659 
30.1438 98.853 8.51547 13.5081 -84.0507 12.7846 -176.533 15.8146 94.8184 -12.2609 0.372924 -2.23512 67.0299 3.67933 -5.59803 17.312 -3.88367 6.2152 170.106 14.5145 89.8166 -11.2258 -2.3126 2.71688 65.7012 -1.82471 2.23058 22.5026 -0.819067 2.6923 0.241148 7.16353 -90.3416 12.5467 0.316474 -0.71711 0.875582 0.284617 -0.730346 -21.6587 0.517358 -0.588852 -1.64605 0.517369 -0.588846 99.8523 -0.779685 -90.0062 44.0279 48.2359 -66.9114 9.4699 -9.14667 -58.6866 0.0332559 0.0740924 -28.6549 -81.9816 -20.2564 87.3658 -24.8365 -22.2733 -75.1523 -31.5706 -18.8032 -66.5585 -13.2368 0.505875 -10.6299 10.3065 -1.48104 -2.07797 -7.69267 -0.931713 -1.14915 
30.2073 98.4171 7.02273 8.49168 -82.2921 7.39729 -176.233 20.1724 94.4632 -15.7193 1.09131 -3.10941 69.1889 4.53682 -4.56723 16.9932 -3.46354 5.63324 169.876 18.7484 89.7235 -13.8645 -2.57387 2.99635 66.2392 -2.10928 1.73027 24.4092 -1.13308 3.31432 0.276491 7.65357 -90.4382 11.5682 0.344886 -0.912653 -0.103069 0.304385 -0.926958 -22.6367 0.603221 -0.766823 -2.62408 0.603228 -0.766826 98.046 -5.53517 -96.4786 34.361 44.7654 -46.3728 7.87783 -13.8533 -74.5125 -3.28863 0.663299 -27.9637 -84.1397 -29.1725 84.4416 -18.8486 -14.6273 -61.9849 -25.4653 -10.7812 -74.3007 -13.6147 0.792554 -13.2834 9.47121 -1.27373 -3.24524 -9.66808 -0.615898 1.28716 
30.4185 97.7 5.49708 0.00185142 -79.6379 -1.59253 -175.729 25.9028 94.1703 -20.1386 0.765056 -4.11204 71.0349 5.08194 -4.27591 17.4273 -3.2464 5.34219 169.57 25.1732 89.7959 -18.6651 -3.78687 3.49173 67.2324 -2.61505 1.63985 24.7393 -1.30424 3.72259 0.247723 8.09317 -90.4761 10.6876 0.274099 -0.970297 -0.983659 0.231129 -0.981416 -23.5167 0.553029 -0.843066 -3.50408 0.553028 -0.843076 95.5083 -14.4593 -100.21 25.074 33.9668 -31.4706 3.25755 -12.5792 -82.052 -5.76502 1.02482 -27.1133 -85.7683 -37.3996 82.9986 -9.00902 -6.49331 -49.9408 -23.6974 -10.3674 -77.4869 -12.7594 0.789039 -14.0324 10.6622 -0.454151 -3.08085 -12.6304 0.0913601 1.93538 
30.672 96.6146 4.0043 -5.96669 -76.2068 -7.70522 -174.651 33.0598 94.4037 -26.0781 0.619955 -5.58142 71.5231 4.95998 -4.52542 15.5705 -2.58989 4.45303 169.154 32.7536 90.5627 -24.4305 -5.95715 4.28411 68.8942 -3.61789 0.835532 19.7376 -1.58839 4.53365 0.205134 8.57789 -90.5235 9.71776 0.172163 -1.05187 -1.95361 0.125706 -1.05843 -24.4859 0.480314 -0.95151 -4.4733 0.480314 -0.951511 92.2538 -20.6934 -105.711 20.002 23.8614 -23.9058 4.75432 -8.11589 -77.9073 -6.04325 1.25111 -27.84 -86.9608 -43.22 82.0929 -2.70425 0.249759 -43.0922 -23.7192 -13.3455 -73.9494 -13.3471 1.03224 -16.0175 12.6729 0.315103 -2.46387 -13.1497 0.706599 2.23357 
31.0825 94.7296 2.62674 -10.6536 -72.3898 -12.242 -172.761 41.7051 94.7582 -34.0037 1.4947 -7.34941 71.9759 5.08739 -4.79892 16.5394 -3.66697 5.90861 167.163 41.2268 91.9141 -31.4421 -10.1254 6.22709 70.949 -4.7894 -0.802817 17.1447 -2.02341 5.47842 0.280002 9.1267 -90.4921 8.62099 0.340747 -0.995018 -3.05029 0.296625 -1.00906 -25.5834 0.624027 -0.846622 -5.57078 0.624026 -0.846627 90.9678 -23.5067 -107.382 17.8427 14.1206 -26.1438 8.0932 -0.374687 -64.9277 -4.48603 1.2287 -29.9803 -88.043 -43.103 80.3054 -1.60145 3.59213 -43.2543 -21.0647 -17.7811 -62.7651 -15.9116 1.778 -20.1025 14.772 0.57664 -2.3741 -12.3194 1.00106 2.22382 
31.4247 92.0206 1.24952 -10.9766 -68.0855 -12.327 -169.074 51.8809 94.3182 -43.2252 4.48111 -9.52362 74.6152 6.00895 -4.28506 14.3034 -2.54374 4.39278 161.731 50.5224 95.1539 -39.1215 -14.9336 9.02321 73.3778 -6.30808 -2.6588 15.1372 -3.26589 7.8859 0.440765 9.50242 -90.415 7.87097 0.698764 -0.857778 -3.8001 0.660335 -0.887703 -26.3355 0.924252 -0.608123 -6.32282 0.924246 -0.608127 88.9408 -22.1013 -112.55 15.3969 12.1311 -27.6094 7.60893 -0.163144 -49.9138 -3.02485 0.928687 -33.9326 -89.1749 -39.3274 77.5453 -3.40808 3.27754 -48.3149 -13.5304 -19.019 -47.311 -15.3953 1.9852 -22.3388 16.3173 0.307418 -3.12315 -11.0476 0.969028 2.62982 
31.7937 88.2573 0.00500092 -6.97781 -64.0593 -9.27861 -161.789 62.3264 88.979 -52.9374 9.37873 -11.3626 76.702 6.82059 -3.71796 13.411 -2.32951 4.12629 152.2 60.6346 100.654 -48.8465 -19.7904 11.0561 77.3168 -8.50602 -3.8375 12.4044 -4.04059 9.20106 0.507724 9.81583 -90.3397 7.24449 0.867435 -0.709691 -4.42638 0.83537 -0.747177 -26.9632 1.04062 -0.416163 -6.95058 1.04062 -0.416173 88.4594 -20.5805 -114.465 12.5573 11.4194 -31.4696 6.9175 2.2722 -38.7672 -1.16588 0.440055 -33.9681 -89.6566 -36.125 75.8648 -5.15792 1.72698 -55.4489 -7.83221 -17.6476 -36.1159 -16.7092 2.39412 -23.9385 18.864 -0.164484 -2.41685 -10.2847 0.392995 2.49123 
31.7233 83.8727 -1.02036 -5.11644 -61.3125 -7.33015 -145.817 70.6338 77.5615 -61.8896 17.1059 -13.13 78.7591 7.87803 -1.92586 11.2614 -0.222735 1.57489 137.925 67.9609 112.478 -58.7766 -23.3205 11.8606 81.1494 -10.5067 -3.99012 10.7558 -3.95567 8.92537 0.603448 10.2679 -90.3403 6.34091 1.06145 -0.706022 -5.32983 1.02934 -0.752073 -27.8679 1.22456 -0.354345 -7.85531 1.22455 -0.354357 87.4566 -19.5542 -117.356 8.81418 15.2164 -35.2655 7.48769 5.83492 -29.8794 -1.94273 0.73947 -33.5873 -89.6074 -33.0959 75.0528 -6.96515 -1.29525 -62.9819 -4.04082 -17.3547 -27.2946 -16.4687 2.43647 -24.5986 22.2739 -0.340851 -1.61016 -10.7103 0.10118 1.39403 
31.5207 78.9732 -2.02523 -1.88424 -60.0632 -5.10928 -118.378 74.8806 53.3544 -70.8759 23.0984 -13.53 80.0264 8.45743 -1.79858 8.1098 0.908356 0.43701 117.045 73.1732 130.477 -69.9171 -25.4503 10.5964 86.1734 -12.8004 -2.77139 8.33247 -3.53526 8.04583 0.613105 10.713 -90.3277 5.45045 1.08884 -0.668921 -6.22025 1.05835 -0.716202 -28.7587 1.23953 -0.310715 -8.746 1.23954 -0.310713 88.3376 -16.9968 -116.978 6.54277 18.2268 -39.176 5.31411 4.07675 -23.9694 0.291154 0.0343805 -34.5752 -89.7429 -30.0398 73.8151 -6.38938 -4.15666 -69.7562 -1.32694 -16.8381 -20.043 -20.5824 3.77844 -28.1491 22.9791 -0.935103 -0.943944 -9.95212 -0.64156 0.868514 
31.241 73.3741 -2.86257 1.07821 -60.5471 -2.87595 -87.783 74.6672 25.2219 -81.5539 27.8074 -11.3136 81.8763 9.3786 -1.33786 6.10626 1.7624 -0.364523 90.8352 74.2841 153.129 -81.4989 -27.4628 8.6657 91.5465 -15.1629 -1.40491 6.25939 -3.82761 8.42992 0.579854 11.1539 -90.3132 4.5685 1.03069 -0.624391 -7.10222 1.00222 -0.669142 -29.6403 1.17069 -0.285722 -9.62767 1.17069 -0.285717 89.184 -13.9478 -116.967 2.8538 19.6442 -40.9562 5.39716 5.11819 -17.9552 -1.17956 0.40839 -34.3028 -89.7925 -27.1711 72.7039 -4.84422 -7.98169 -74.7136 2.94988 -10.2614 -13.7195 -17.9127 2.85483 -25.7535 23.0252 -1.10233 -0.310678 -9.40052 -0.94832 -0.114131 
